<?xml version="1.0" encoding="iso-8859-1"?>
<!-- Generator: Adobe Illustrator 19.0.0, SVG Export Plug-In . SVG Version: 6.00 Build 0)  -->
<svg version="1.1" id="Layer_1" xmlns="http://www.w3.org/2000/svg" xmlns:xlink="http://www.w3.org/1999/xlink" x="0px" y="0px"
	 viewBox="0 0 481.882 481.882" style="enable-background:new 0 0 481.882 481.882;" xml:space="preserve">
<g>
	<rect x="230.099" y="112.038" style="fill:#64798A;" width="21.685" height="349.365"/>
	<rect y="455.379" style="fill:#64798A;" width="481.882" height="21.685"/>
</g>
<g>
	<polygon style="fill:#3A556A;" points="255.398,452.367 255.398,429.478 226.485,429.478 226.485,452.367 179.501,452.367 
		179.501,481.882 302.381,481.882 302.381,452.367 	"/>
	<path style="fill:#3A556A;" d="M469.835,0H22.889c-6.626,0-11.445,5.421-11.445,12.047v99.991c0,6.626,5.421,12.047,11.445,12.047
		h446.946c6.626,0,12.047-5.421,12.047-12.047V12.047C481.882,5.421,476.461,0,469.835,0z"/>
</g>
<path style="fill:#EBF0F3;" d="M22.889,115.652c-1.807,0-3.012-1.205-3.012-3.012V12.047c0-1.807,1.807-3.012,3.012-3.012h446.946
	c1.807,0,3.012,1.205,3.012,3.012v99.991c0,1.807-1.205,3.012-3.012,3.012H22.889V115.652z"/>
<g>
	<ellipse style="fill:#64798A;" cx="269.252" cy="25.299" rx="6.626" ry="7.228"/>
	<ellipse style="fill:#64798A;" cx="295.755" cy="25.299" rx="6.626" ry="7.228"/>
	<ellipse style="fill:#64798A;" cx="321.656" cy="25.299" rx="6.626" ry="7.228"/>
	<ellipse style="fill:#64798A;" cx="348.16" cy="25.299" rx="6.626" ry="7.228"/>
	<ellipse style="fill:#64798A;" cx="374.664" cy="25.299" rx="6.626" ry="7.228"/>
	<ellipse style="fill:#64798A;" cx="400.565" cy="25.299" rx="6.626" ry="7.228"/>
	<ellipse style="fill:#64798A;" cx="427.068" cy="25.299" rx="6.626" ry="7.228"/>
	<ellipse style="fill:#64798A;" cx="452.969" cy="25.299" rx="6.626" ry="7.228"/>
	<ellipse style="fill:#64798A;" cx="282.504" cy="43.369" rx="6.626" ry="7.228"/>
	<ellipse style="fill:#64798A;" cx="308.405" cy="43.369" rx="6.626" ry="7.228"/>
	<ellipse style="fill:#64798A;" cx="334.908" cy="43.369" rx="6.626" ry="7.228"/>
	<ellipse style="fill:#64798A;" cx="361.412" cy="43.369" rx="6.626" ry="7.228"/>
	<ellipse style="fill:#64798A;" cx="387.313" cy="43.369" rx="6.626" ry="7.228"/>
	<ellipse style="fill:#64798A;" cx="413.816" cy="43.369" rx="6.626" ry="7.228"/>
	<ellipse style="fill:#64798A;" cx="440.32" cy="43.369" rx="6.626" ry="7.228"/>
	<ellipse style="fill:#64798A;" cx="269.252" cy="62.042" rx="6.626" ry="7.228"/>
	<ellipse style="fill:#64798A;" cx="295.755" cy="62.042" rx="6.626" ry="7.228"/>
	<ellipse style="fill:#64798A;" cx="321.656" cy="62.042" rx="6.626" ry="7.228"/>
	<ellipse style="fill:#64798A;" cx="348.16" cy="62.042" rx="6.626" ry="7.228"/>
	<ellipse style="fill:#64798A;" cx="374.664" cy="62.042" rx="6.626" ry="7.228"/>
	<ellipse style="fill:#64798A;" cx="400.565" cy="62.042" rx="6.626" ry="7.228"/>
	<ellipse style="fill:#64798A;" cx="427.068" cy="62.042" rx="6.626" ry="7.228"/>
	<ellipse style="fill:#64798A;" cx="452.969" cy="62.042" rx="6.626" ry="7.228"/>
	<ellipse style="fill:#64798A;" cx="282.504" cy="80.715" rx="6.626" ry="7.228"/>
	<ellipse style="fill:#64798A;" cx="308.405" cy="80.715" rx="6.626" ry="7.228"/>
	<ellipse style="fill:#64798A;" cx="334.908" cy="80.715" rx="6.626" ry="7.228"/>
	<ellipse style="fill:#64798A;" cx="361.412" cy="80.715" rx="6.626" ry="7.228"/>
	<ellipse style="fill:#64798A;" cx="387.313" cy="80.715" rx="6.626" ry="7.228"/>
	<ellipse style="fill:#64798A;" cx="413.816" cy="80.715" rx="6.626" ry="7.228"/>
	<ellipse style="fill:#64798A;" cx="440.32" cy="80.715" rx="6.626" ry="7.228"/>
	<ellipse style="fill:#64798A;" cx="269.252" cy="99.388" rx="6.626" ry="7.228"/>
	<ellipse style="fill:#64798A;" cx="295.755" cy="99.388" rx="6.626" ry="7.228"/>
	<ellipse style="fill:#64798A;" cx="321.656" cy="99.388" rx="6.626" ry="7.228"/>
	<ellipse style="fill:#64798A;" cx="348.16" cy="99.388" rx="6.626" ry="7.228"/>
	<ellipse style="fill:#64798A;" cx="374.664" cy="99.388" rx="6.626" ry="7.228"/>
	<ellipse style="fill:#64798A;" cx="400.565" cy="99.388" rx="6.626" ry="7.228"/>
	<ellipse style="fill:#64798A;" cx="427.068" cy="99.388" rx="6.626" ry="7.228"/>
	<ellipse style="fill:#64798A;" cx="452.969" cy="99.388" rx="6.626" ry="7.228"/>
</g>
<ellipse style="fill:#3A556A;" cx="61.44" cy="62.042" rx="27.708" ry="28.311"/>
<ellipse style="fill:#64798A;" cx="62.042" cy="61.44" rx="19.275" ry="19.878"/>
<ellipse style="fill:#E56353;" cx="128.301" cy="62.042" rx="13.854" ry="14.456"/>
<ellipse style="fill:#44C4A1;" cx="184.922" cy="62.042" rx="13.854" ry="14.456"/>
<path style="fill:#3A556A;" d="M469.835,144.565H22.889c-6.626,0-11.445,5.421-11.445,12.047v99.991
	c0,6.626,5.421,12.047,11.445,12.047h446.946c6.626,0,12.047-5.421,12.047-12.047v-99.991
	C481.882,149.986,476.461,144.565,469.835,144.565z"/>
<path style="fill:#EBF0F3;" d="M22.889,259.614c-1.807,0-3.012-1.205-3.012-3.012v-99.991c0-1.807,1.205-3.012,3.012-3.012h446.946
	c1.807,0,3.012,1.205,3.012,3.012v99.991c0,1.807-1.205,3.012-3.012,3.012H22.889z"/>
<g>
	<ellipse style="fill:#64798A;" cx="269.252" cy="169.261" rx="6.626" ry="7.228"/>
	<ellipse style="fill:#64798A;" cx="295.755" cy="169.261" rx="6.626" ry="7.228"/>
	<ellipse style="fill:#64798A;" cx="321.656" cy="169.261" rx="6.626" ry="7.228"/>
	<ellipse style="fill:#64798A;" cx="348.16" cy="169.261" rx="6.626" ry="7.228"/>
	<ellipse style="fill:#64798A;" cx="374.664" cy="169.261" rx="6.626" ry="7.228"/>
	<ellipse style="fill:#64798A;" cx="400.565" cy="169.261" rx="6.626" ry="7.228"/>
	<ellipse style="fill:#64798A;" cx="427.068" cy="169.261" rx="6.626" ry="7.228"/>
	<ellipse style="fill:#64798A;" cx="452.969" cy="169.261" rx="6.626" ry="7.228"/>
	<ellipse style="fill:#64798A;" cx="282.504" cy="187.934" rx="6.626" ry="7.228"/>
	<ellipse style="fill:#64798A;" cx="308.405" cy="187.934" rx="6.626" ry="7.228"/>
	<ellipse style="fill:#64798A;" cx="334.908" cy="187.934" rx="6.626" ry="7.228"/>
	<ellipse style="fill:#64798A;" cx="361.412" cy="187.934" rx="6.626" ry="7.228"/>
	<ellipse style="fill:#64798A;" cx="387.313" cy="187.934" rx="6.626" ry="7.228"/>
	<ellipse style="fill:#64798A;" cx="413.816" cy="187.934" rx="6.626" ry="7.228"/>
	<ellipse style="fill:#64798A;" cx="440.32" cy="187.934" rx="6.626" ry="7.228"/>
	<ellipse style="fill:#64798A;" cx="269.252" cy="206.607" rx="6.626" ry="7.228"/>
	<ellipse style="fill:#64798A;" cx="295.755" cy="206.607" rx="6.626" ry="7.228"/>
	<ellipse style="fill:#64798A;" cx="321.656" cy="206.607" rx="6.626" ry="7.228"/>
	<ellipse style="fill:#64798A;" cx="348.16" cy="206.607" rx="6.626" ry="7.228"/>
	<ellipse style="fill:#64798A;" cx="374.664" cy="206.607" rx="6.626" ry="7.228"/>
	<ellipse style="fill:#64798A;" cx="400.565" cy="206.607" rx="6.626" ry="7.228"/>
	<ellipse style="fill:#64798A;" cx="427.068" cy="206.607" rx="6.626" ry="7.228"/>
	<ellipse style="fill:#64798A;" cx="452.969" cy="206.607" rx="6.626" ry="7.228"/>
	<ellipse style="fill:#64798A;" cx="282.504" cy="225.28" rx="6.626" ry="7.228"/>
	<ellipse style="fill:#64798A;" cx="308.405" cy="225.28" rx="6.626" ry="7.228"/>
	<ellipse style="fill:#64798A;" cx="334.908" cy="225.28" rx="6.626" ry="7.228"/>
	<ellipse style="fill:#64798A;" cx="361.412" cy="225.28" rx="6.626" ry="7.228"/>
	<ellipse style="fill:#64798A;" cx="387.313" cy="225.28" rx="6.626" ry="7.228"/>
	<ellipse style="fill:#64798A;" cx="413.816" cy="225.28" rx="6.626" ry="7.228"/>
	<ellipse style="fill:#64798A;" cx="440.32" cy="225.28" rx="6.626" ry="7.228"/>
	<ellipse style="fill:#64798A;" cx="269.252" cy="243.351" rx="6.626" ry="7.228"/>
	<ellipse style="fill:#64798A;" cx="295.755" cy="243.351" rx="6.626" ry="7.228"/>
	<ellipse style="fill:#64798A;" cx="321.656" cy="243.351" rx="6.626" ry="7.228"/>
	<ellipse style="fill:#64798A;" cx="348.16" cy="243.351" rx="6.626" ry="7.228"/>
	<ellipse style="fill:#64798A;" cx="374.664" cy="243.351" rx="6.626" ry="7.228"/>
	<ellipse style="fill:#64798A;" cx="400.565" cy="243.351" rx="6.626" ry="7.228"/>
	<ellipse style="fill:#64798A;" cx="427.068" cy="243.351" rx="6.626" ry="7.228"/>
	<ellipse style="fill:#64798A;" cx="452.969" cy="243.351" rx="6.626" ry="7.228"/>
</g>
<ellipse style="fill:#3A556A;" cx="61.44" cy="206.607" rx="27.708" ry="28.311"/>
<ellipse style="fill:#64798A;" cx="62.042" cy="206.005" rx="19.275" ry="19.878"/>
<ellipse style="fill:#E56353;" cx="128.301" cy="206.607" rx="13.854" ry="14.456"/>
<ellipse style="fill:#44C4A1;" cx="184.922" cy="206.607" rx="13.854" ry="14.456"/>
<path style="fill:#3A556A;" d="M469.835,288.527H22.889c-6.626,0-11.445,5.421-11.445,12.047v99.991
	c0,6.626,5.421,12.047,11.445,12.047h446.946c6.626,0,12.047-5.421,12.047-12.047v-99.991
	C481.882,293.948,476.461,288.527,469.835,288.527z"/>
<path style="fill:#EBF0F3;" d="M22.889,404.179c-1.807,0-3.012-1.205-3.012-3.012V300.574c0-1.807,1.205-3.012,3.012-3.012h446.946
	c1.807,0,3.012,1.205,3.012,3.012v99.991c0,1.807-1.205,3.012-3.012,3.012H22.889V404.179z"/>
<g>
	<ellipse style="fill:#64798A;" cx="269.252" cy="313.826" rx="6.626" ry="7.228"/>
	<ellipse style="fill:#64798A;" cx="295.755" cy="313.826" rx="6.626" ry="7.228"/>
	<ellipse style="fill:#64798A;" cx="321.656" cy="313.826" rx="6.626" ry="7.228"/>
	<ellipse style="fill:#64798A;" cx="348.16" cy="313.826" rx="6.626" ry="7.228"/>
	<ellipse style="fill:#64798A;" cx="374.664" cy="313.826" rx="6.626" ry="7.228"/>
	<ellipse style="fill:#64798A;" cx="400.565" cy="313.826" rx="6.626" ry="7.228"/>
	<ellipse style="fill:#64798A;" cx="427.068" cy="313.826" rx="6.626" ry="7.228"/>
	<ellipse style="fill:#64798A;" cx="452.969" cy="313.826" rx="6.626" ry="7.228"/>
	<ellipse style="fill:#64798A;" cx="282.504" cy="332.499" rx="6.626" ry="7.228"/>
	<ellipse style="fill:#64798A;" cx="308.405" cy="332.499" rx="6.626" ry="7.228"/>
	<ellipse style="fill:#64798A;" cx="334.908" cy="332.499" rx="6.626" ry="7.228"/>
	<ellipse style="fill:#64798A;" cx="361.412" cy="332.499" rx="6.626" ry="7.228"/>
	<ellipse style="fill:#64798A;" cx="387.313" cy="332.499" rx="6.626" ry="7.228"/>
	<ellipse style="fill:#64798A;" cx="413.816" cy="332.499" rx="6.626" ry="7.228"/>
	<ellipse style="fill:#64798A;" cx="440.32" cy="332.499" rx="6.626" ry="7.228"/>
	<ellipse style="fill:#64798A;" cx="269.252" cy="350.569" rx="6.626" ry="7.228"/>
	<ellipse style="fill:#64798A;" cx="295.755" cy="350.569" rx="6.626" ry="7.228"/>
	<ellipse style="fill:#64798A;" cx="321.656" cy="350.569" rx="6.626" ry="7.228"/>
	<ellipse style="fill:#64798A;" cx="348.16" cy="350.569" rx="6.626" ry="7.228"/>
	<ellipse style="fill:#64798A;" cx="374.664" cy="350.569" rx="6.626" ry="7.228"/>
	<ellipse style="fill:#64798A;" cx="400.565" cy="350.569" rx="6.626" ry="7.228"/>
	<ellipse style="fill:#64798A;" cx="427.068" cy="350.569" rx="6.626" ry="7.228"/>
	<ellipse style="fill:#64798A;" cx="452.969" cy="350.569" rx="6.626" ry="7.228"/>
	<ellipse style="fill:#64798A;" cx="282.504" cy="369.242" rx="6.626" ry="7.228"/>
	<ellipse style="fill:#64798A;" cx="308.405" cy="369.242" rx="6.626" ry="7.228"/>
	<ellipse style="fill:#64798A;" cx="334.908" cy="369.242" rx="6.626" ry="7.228"/>
	<ellipse style="fill:#64798A;" cx="361.412" cy="369.242" rx="6.626" ry="7.228"/>
	<ellipse style="fill:#64798A;" cx="387.313" cy="369.242" rx="6.626" ry="7.228"/>
	<ellipse style="fill:#64798A;" cx="413.816" cy="369.242" rx="6.626" ry="7.228"/>
	<ellipse style="fill:#64798A;" cx="440.32" cy="369.242" rx="6.626" ry="7.228"/>
	<ellipse style="fill:#64798A;" cx="269.252" cy="387.915" rx="6.626" ry="7.228"/>
	<ellipse style="fill:#64798A;" cx="295.755" cy="387.915" rx="6.626" ry="7.228"/>
	<ellipse style="fill:#64798A;" cx="321.656" cy="387.915" rx="6.626" ry="7.228"/>
	<ellipse style="fill:#64798A;" cx="348.16" cy="387.915" rx="6.626" ry="7.228"/>
	<ellipse style="fill:#64798A;" cx="374.664" cy="387.915" rx="6.626" ry="7.228"/>
	<ellipse style="fill:#64798A;" cx="400.565" cy="387.915" rx="6.626" ry="7.228"/>
	<ellipse style="fill:#64798A;" cx="427.068" cy="387.915" rx="6.626" ry="7.228"/>
	<ellipse style="fill:#64798A;" cx="452.969" cy="387.915" rx="6.626" ry="7.228"/>
</g>
<ellipse style="fill:#3A556A;" cx="61.44" cy="350.569" rx="27.708" ry="28.311"/>
<ellipse style="fill:#64798A;" cx="62.042" cy="350.569" rx="19.275" ry="19.878"/>
<ellipse style="fill:#E56353;" cx="128.301" cy="350.569" rx="13.854" ry="14.456"/>
<ellipse style="fill:#44C4A1;" cx="184.922" cy="350.569" rx="13.854" ry="14.456"/>
<g>
</g>
<g>
</g>
<g>
</g>
<g>
</g>
<g>
</g>
<g>
</g>
<g>
</g>
<g>
</g>
<g>
</g>
<g>
</g>
<g>
</g>
<g>
</g>
<g>
</g>
<g>
</g>
<g>
</g>
</svg>
